# xmcd
#
# Track frame offsets:
#	150
#	13026
#	48426
#	67339
#	88386
#	120029
#	139783
#	164998
#	194253
#	208531
#	240073
#	253008
#
# Disc length: 3689 seconds
#
# Revision: 0
# Processed by: cddbd v1.5.1PL0 Copyright (c) Steve Scherf et al.
# Submitted via: dBpowerAMP V4.0
#
DISCID=a90e670c
DTITLE=Carlos Johnson - My Name Is Carlos Johnson
DYEAR=2000
DGENRE=Blues
TTITLE0=Hey Pretty Baby II
TTITLE1=As the Years Go Passing By
TTITLE2=All Right, OK, You Win - Going to New York
TTITLE3=My Name Is Carlos Johnson
TTITLE4=Sometimes I Wonder
TTITLE5=The Thrill is Gone
TTITLE6=Carlos Johnson Boogie
TTITLE7=Gonna Move to the Outskirts of Town
TTITLE8=She Wants to Sell my Monkey
TTITLE9=Ain't Nobody Business
TTITLE10=Hey Pretty Baby I
TTITLE11=Summertime
EXTD=recorded in November 19, 2000
EXTT0=
EXTT1=
EXTT2=
EXTT3=
EXTT4=
EXTT5=
EXTT6=
EXTT7=
EXTT8=
EXTT9=
EXTT10=
EXTT11=
PLAYORDER=
